<?xml version="1.0" ?><!DOCTYPE svg  PUBLIC '-//W3C//DTD SVG 1.1//EN'  'http://www.w3.org/Graphics/SVG/1.1/DTD/svg11.dtd'><svg enable-background="new 0 0 512 512" height="512px" id="Layer_1" version="1.1" viewBox="0 0 512 512" width="512px" xml:space="preserve" xmlns="http://www.w3.org/2000/svg" xmlns:xlink="http://www.w3.org/1999/xlink"><g><path d="M342.111,331.447c-0.965,2.17-1.936,4.346-2.904,6.516c-0.23,0.475-0.459,0.951-0.684,1.426   c-1.06,2.09-2.114,4.178-3.172,6.269c-0.75,0.692-1.138,1.577-1.356,2.553c-1.642,1.521-1.759,4.397-4.445,4.996   c-1.101,0.015-2.2,0.033-3.305,0.048c-3.295-0.02-6.583-0.039-9.871-0.054c-1.1,0.015-2.204,0.028-3.309,0.043   c-3.288-0.015-6.578-0.028-9.868-0.043c-1.1,0.015-2.203,0.028-3.309,0.043c-3.289-0.015-6.578-0.028-9.865-0.043   c-1.106,0.015-2.209,0.028-3.311,0.043c-3.29-0.015-6.578-0.028-9.865-0.043c-1.106,0.015-2.212,0.028-3.31,0.043   c-3.289-0.015-6.579-0.028-9.868-0.043c-1.104,0.015-2.209,0.028-3.309,0.043c-3.289-0.015-6.578-0.028-9.867-0.043   c-1.109,0.015-2.208,0.028-3.308,0.043c-3.289-0.015-6.583-0.028-9.873-0.043c-1.104,0.015-2.204,0.028-3.303,0.043   c-0.755-0.048-1.53-0.233-2.267-0.123c-3.117,0.448-4.828-0.832-5.66-3.883c-0.622-2.271-1.75-4.398-2.648-6.589   c-0.306-1.877-0.977-3.627-1.923-5.276c-1.712-5.373-3.594-10.681-5.965-15.81c-0.239-1.898-1.005-3.61-1.912-5.27   c-1.703-5.379-3.595-10.689-5.968-15.814c0.048-1.08,0.087-2.155,0.135-3.236c1.481-1.171,2.967-2.344,4.455-3.514   c0.832-0.388,1.549-0.907,2.027-1.711c2.008-1.244,3.786-2.76,5.335-4.543c0.43-0.396,0.86-0.793,1.295-1.189   c1.975-1.372,3.696-3.021,5.207-4.896c1.071-0.688,1.942-1.572,2.61-2.658c1.606-1.237,2.936-2.733,4.078-4.406   c0.635-0.713,1.275-1.43,1.917-2.146c1.558-1.328,2.795-2.926,3.905-4.633c0.926-0.674,1.543-1.592,2.045-2.604   c1.573-1.547,2.855-3.311,3.925-5.231c0.64-0.903,1.281-1.812,1.917-2.715c1.338-1.587,2.528-3.27,3.356-5.182   c0.588-0.913,1.17-1.827,1.754-2.739c1.357-2.089,2.773-4.145,3.524-6.559c0.682-0.493,0.957-1.224,1.151-1.998   c1.214-2.071,2.31-4.188,2.955-6.511c0.559-0.383,0.553-1,0.65-1.578c1.415-2.64,2.438-5.422,3.016-8.362   c0.569-0.783,0.864-1.645,0.785-2.625c1.057-2.538,1.657-5.178,1.84-7.917c1.502-5.809,1.813-11.656,0.487-17.656   c-1.338,5.154-2.267,10.369-4.871,15.026c-1.161,1.487-2.329,2.974-3.496,4.466c-0.864,0.698-1.73,1.4-2.59,2.098   c-1.969,0.889-3.939,1.783-5.91,2.673c-0.946-0.048-1.854,0.043-2.638,0.635c-3.523,0.005-7.047,0.053-10.536-0.592   c-1.282-0.435-2.554-0.923-3.949-0.789c-4.045-1.487-8.261-2.08-12.517-2.491c-1.099-0.034-2.204-0.071-3.303-0.105   c-3.136-0.588-6.221-0.411-9.242,0.636c-1.299-0.01-2.423,0.459-3.402,1.291c-2.133,0.773-4.055,1.912-5.843,3.294   c-0.807,0.171-1.486,0.555-1.988,1.219c-2.161,0.88-4.017,2.251-5.856,3.638c-0.698,0.497-1.397,0.999-2.09,1.496   c-2.142,1.167-4.073,2.61-5.809,4.317c-0.913,0.387-1.63,1.009-2.185,1.821c-1.822,0.784-2.716,3.136-5.078,3.007   c-2.361-1.396-3.533-3.978-5.646-5.627c-0.736-0.941-1.439-1.912-2.219-2.82c-4.919-5.751-9.752-11.542-10.618-19.497   c0.028-1.095,0.048-2.194,0.076-3.289c0.636-2.639,1.271-5.279,1.903-7.917c0.334-0.603,0.669-1.21,1.004-1.813   c1.2-1.826,2.4-3.652,3.605-5.478c0.478-0.555,0.966-1.109,1.449-1.664c1.716-1.443,3.427-2.883,5.148-4.326   c0.898-0.612,1.802-1.224,2.706-1.836c1.989-0.952,3.748-2.223,5.321-3.767c1.038-0.521,1.989-1.162,2.677-2.123   c1.693-1.085,3.251-2.328,4.528-3.896c0.44-0.406,0.875-0.813,1.31-1.219c1.998-1.334,3.7-2.974,5.216-4.824   c1.081-0.684,1.965-1.564,2.658-2.639c1.505-1.143,2.807-2.491,3.901-4.03c0.741-0.817,1.482-1.635,2.223-2.453   c1.749-1.583,3.375-3.28,4.598-5.316c0.77-0.526,1.401-1.171,1.75-2.056c1.338-1.329,2.52-2.768,3.376-4.46   c0.916-0.736,1.481-1.711,1.902-2.782c1.405-2.175,2.812-4.345,4.212-6.521c0.205-0.302,0.406-0.598,0.612-0.898   c1.543-2.114,3.093-4.227,4.637-6.335c0.617-0.669,1.239-1.338,1.86-2.003c2.271-1.248,2.315-2.658,0.684-4.642   c-3.007-3.647-6.306-6.96-10.131-9.719c-1.797-1.3-2.5-2.667-1.127-4.642c0.631-0.278,1.266-0.554,1.903-0.837   c2.849-0.454,5.698-0.908,8.558-1.362c1.099-0.019,2.204-0.043,3.308-0.062c4.14,0.225,8.151,1.018,12,2.567   c2.787,0.957,4.833,3.385,7.829,3.911c2.621-0.545,5.232-1.09,7.851-1.635c1.095-0.086,2.19-0.167,3.291-0.253   c3.078-0.128,6.146-0.253,9.227-0.382c1.301,0.406,2.625,0.411,3.959,0.276c3.584,0.479,7.17,0.957,10.757,1.435   c1.456,0.249,2.917,0.493,4.38,0.741c4.826,1.569,9.654,3.137,14.488,4.709c1.879,1.081,3.83,2.013,5.93,2.597   c5.053,3.036,10.239,5.832,15.005,9.346c13.044,9.609,22.771,21.958,30.245,36.205c0.845,1.926,1.691,3.858,2.531,5.789   c1.675,4.843,3.347,9.69,5.02,14.534c0.241,1.578,0.384,3.179,1.163,4.618c0.704,3.949,1.41,7.903,2.119,11.857   c-0.131,1.353-0.135,2.691,0.485,3.948c-0.037,3.542,0.324,7.047,0.818,10.546c0.003,1.1,0.003,2.204,0.003,3.308   c0.021,3.29,0.039,6.574,0.054,9.863c-0.021,1.104-0.044,2.209-0.063,3.313c-0.148,3.064-0.298,6.128-0.448,9.193   c-0.078,1.104-0.145,2.214-0.221,3.323c-0.351,3.06-0.966,6.1-0.765,9.208c-0.59,0.804-0.594,1.721-0.508,2.658   c-0.392,2.826-0.779,5.65-1.167,8.477c-0.156,1.096-0.313,2.187-0.468,3.279c-0.497,2.641-0.995,5.277-1.492,7.916   c-0.143,0.882-0.287,1.761-0.432,2.636c-0.868,2.825-1.605,5.679-1.834,8.645c-0.727,0.745-0.693,1.692-0.689,2.629   c-0.966,2.558-1.661,5.183-2.008,7.894c-0.765,0.692-0.62,1.678-0.82,2.547c-0.746,2.448-1.492,4.896-2.238,7.34   c-0.134,0.468-0.272,0.938-0.41,1.404c-0.971,2.826-1.947,5.656-2.915,8.482c-0.316,0.859-0.623,1.721-0.938,2.576   c-1.108,2.113-1.971,4.322-2.562,6.631C342.592,329.531,342.274,330.454,342.111,331.447z M239.423,171.423   c2.391-1.029,3.958-2.754,4.503-5.336c0.884-0.975,0.737-2.142,0.625-3.303c0.005-6.23-3.818-10.068-9.881-9.911   c-0.946-0.077-1.913-0.21-2.639,0.645c-3.08,0.808-4.705,2.979-5.536,5.895c-0.583,0.828-0.55,1.754-0.426,2.692   c-0.268,6.444,3.595,10.518,9.917,10.455C237.262,172.58,238.429,172.255,239.423,171.423z"/><path d="M204.366,377.548c-1.452,1.463-3.983,1.64-4.728,3.949c-0.297,0.685-0.589,1.368-0.884,2.056   c-0.971,2.797-1.937,5.598-3.457,8.16c-0.077,0.627-0.048,1.296-0.688,1.693c-0.716,2.738-1.884,5.302-3.164,7.812   c-0.173,0.463-0.345,0.933-0.517,1.401c0.306,0.252,0.612,0.51,0.918,0.764c1.099-0.01,2.209-0.022,3.308-0.033   c3.29,0.011,6.579,0.023,9.867,0.033c1.1-0.01,2.209-0.022,3.314-0.033c3.284,0.011,6.572,0.023,9.862,0.033   c1.104-0.01,2.208-0.022,3.312-0.033c3.285,0.011,6.574,0.023,9.863,0.033c1.104-0.01,2.209-0.022,3.313-0.033   c3.284,0.011,6.573,0.023,9.863,0.033c1.104-0.01,2.208-0.022,3.317-0.033c3.284,0.011,6.569,0.023,9.857,0.033   c1.104-0.01,2.207-0.022,3.316-0.033c3.284,0.011,6.568,0.023,9.857,0.033c1.109-0.01,2.209-0.022,3.318-0.033   c3.284,0.011,6.574,0.023,9.858,0.033c1.108-0.01,2.209-0.022,3.317-0.033c3.289,0.011,6.573,0.023,9.856,0.033   c1.108-0.01,2.214-0.022,3.317-0.033c3.287,0.011,6.571,0.023,9.857,0.033c1.108-0.01,2.213-0.022,3.317-0.033   c3.288,0.011,6.573,0.023,9.861,0.033c1.104-0.01,2.209-0.022,3.313-0.033c3.29,0.011,6.578,0.023,9.862,0.033   c1.104-0.01,2.209-0.022,3.313-0.033c3.29,0.011,6.578,0.023,9.862,0.033c1.104-0.01,2.215-0.022,3.313-0.033   c3.288,0.011,6.579,0.023,9.869,0.033c0.266-0.033,0.534-0.065,0.807-0.1c-1.472-5.752-4.536-10.899-6.319-16.536   c-1.046-1.861-1.83-3.825-2.337-5.899c-0.68-0.646-1.358-1.287-2.037-1.932c-2.82-1.139-5.411-2.688-7.971-4.293   c-3.504-2.653-7.615-2.854-11.761-2.903c-1.313,0.438-2.624,0.408-3.943,0.044c-3.078,0.215-6.157,0.277-9.231-0.044   c-1.313,0.438-2.628,0.408-3.948,0.044c-3.073,0.215-6.152,0.277-9.226-0.044c-1.314,0.438-2.63,0.408-3.95,0.044   c-3.078,0.215-6.151,0.277-9.231-0.044c-1.31,0.438-2.625,0.408-3.942,0.044c-3.079,0.215-6.153,0.277-9.231-0.044   c-1.311,0.438-2.625,0.408-3.943,0.044c-3.079,0.215-6.158,0.277-9.232-0.044c-1.31,0.438-2.629,0.408-3.947,0.044   c-3.069,0.215-6.148,0.277-9.219-0.044c-1.315,0.431-2.634,0.408-3.958,0.044c-3.307,0.206-6.611,0.312-9.915-0.08   c-1.081,0.318-2.17,0.349-3.271,0.063c-3.298,0.243-6.607,0.318-9.906-0.063c-1.08,0.318-2.17,0.349-3.269,0.063   c-3.29,0.109-6.587,0.214-9.882,0.318c-0.281,0.14-0.569,0.277-0.856,0.416c-2.209,1.535-4.503,2.927-7.027,3.905   C205.863,377.023,205.165,377.371,204.366,377.548z"/></g></svg>