<?xml version="1.0" standalone="no"?><!DOCTYPE svg PUBLIC "-//W3C//DTD SVG 1.1//EN" "http://www.w3.org/Graphics/SVG/1.1/DTD/svg11.dtd"><svg t="1555587115791" class="icon" style="" viewBox="0 0 1024 1024" version="1.1" xmlns="http://www.w3.org/2000/svg" p-id="1592" xmlns:xlink="http://www.w3.org/1999/xlink" width="128" height="128"><defs><style type="text/css"></style></defs><path d="M853.333333 213.333333a42.666667 42.666667 0 0 0-42.666666-42.666666h-85.333334V85.333333h-85.333333v85.333334h-85.333333V85.333333h-85.333334v85.333334H384V85.333333H298.666667v85.333334H213.333333a42.666667 42.666667 0 0 0-42.666666 42.666666v85.333334H85.333333v85.333333h85.333334v85.333333H85.333333v85.333334h85.333334v85.333333H85.333333v85.333333h85.333334v85.333334a42.666667 42.666667 0 0 0 42.666666 42.666666h85.333334v85.333334h85.333333v-85.333334h85.333333v85.333334h85.333334v-85.333334h85.333333v85.333334h85.333333v-85.333334h85.333334a42.666667 42.666667 0 0 0 42.666666-42.666666v-85.333334h85.333334v-85.333333h-85.333334v-85.333333h85.333334v-85.333334h-85.333334V384h85.333334V298.666667h-85.333334V213.333333z m-85.333333 554.666667H256V256h512v512z" fill="" p-id="1593"></path><path d="M426.666667 426.666667h170.666666v170.666666h-170.666666z" fill="" p-id="1594"></path></svg>