<!-- Generated by IcoMoon.io -->
<svg version="1.1" xmlns="http://www.w3.org/2000/svg" width="512" height="512" viewBox="0 0 512 512">
<title></title>
<g id="icomoon-ignore">
</g>
<path d="M304 480h-80c-26.467 0-48-21.533-48-48 0-8.552 2.247-16.588 6.184-23.549-13.331-8.538-22.184-23.479-22.184-40.451 0-12.282 4.638-23.502 12.252-32-7.614-8.498-12.252-19.718-12.252-32 0-5.607 0.967-10.993 2.742-16h-114.742c-26.467 0-48-21.533-48-48 0-26.468 21.533-48 48-48h197.338l-46.918-88.009c-4.199-7.268-6.42-15.563-6.42-23.991 0-26.468 21.533-48 48-48 13.184 0 25.476 5.236 34.612 14.744 0.119 0.124 0.236 0.248 0.35 0.375l109.038 119.585v-22.704c0-8.837 7.163-16 16-16h96c8.837 0 16 7.163 16 16v320c0 8.837-7.163 16-16 16h-96c-8.837 0-16-7.163-16-16v-22.111l-72.845 36.422c-2.221 1.111-4.67 1.689-7.155 1.689zM432 448c8.837 0 16-7.163 16-16s-7.163-16-16-16-16 7.163-16 16 7.163 16 16 16zM300.223 448l83.777-41.889v-191.912l-132.584-145.41c-3.033-3.090-7.081-4.789-11.416-4.789-8.822 0-16 7.178-16 16 0 2.729 0.654 5.306 1.947 7.662 0.162 0.265 0.316 0.535 0.463 0.811l59.708 112c2.645 4.96 2.494 10.942-0.399 15.76-2.892 4.819-8.099 7.767-13.719 7.767h-224c-8.822 0-16 7.178-16 16s7.178 16 16 16h160c8.836 0 16 7.163 16 16s-7.164 16-16 16c-8.822 0-16 7.178-16 16s7.178 16 16 16c8.837 0 16 7.163 16 16s-7.163 16-16 16c-8.822 0-16 7.178-16 16s7.178 16 16 16h16c8.837 0 16 7.163 16 16s-7.163 16-16 16c-8.822 0-16 7.178-16 16s7.178 16 16 16h76.223z"></path>
</svg>
