<?xml version="1.0" standalone="no"?><!DOCTYPE svg PUBLIC "-//W3C//DTD SVG 1.1//EN" "http://www.w3.org/Graphics/SVG/1.1/DTD/svg11.dtd"><svg t="1548552864703" class="icon" style="" viewBox="0 0 1024 1024" version="1.1" xmlns="http://www.w3.org/2000/svg" p-id="3914" xmlns:xlink="http://www.w3.org/1999/xlink" width="280" height="280"><defs><style type="text/css"></style></defs><path d="M503.9 401c-22.2 0-43.3-3.2-59.2-9.1L116.1 270.5c-26.9-10-30.9-24.4-30.9-32.2 0-7.8 4-22.3 30.9-32.2L444.6 84.7c16-5.9 37-9.1 59.2-9.1 22.2 0 43.3 3.2 59.2 9.1L891.5 206c26.9 10 30.9 24.4 30.9 32.2 0 7.7-4 22.2-30.9 32.2L563.1 391.8c-16 5.9-37 9.2-59.2 9.2z m-70.1 547.4c-7.5 0-15.5-1.4-23.1-4.3L122.9 834.3c-33.5-12.6-59-51.7-59-90.9V377.2c0-32.9 17.6-54.1 44.9-54.1 7 0 14.3 1.4 22 4.3l291.8 109.8c35 13.2 63.1 53.1 63.1 90.9v366.2c-0.1 31.3-22.3 54.1-51.9 54.1z m147.4-6.1h1.6c-27.5 0-44.4-15.6-44.4-47.9V528.1c0-39.1 24-78.1 57.9-90.9l287.3-109.8c7.9-2.8 16.2-4.3 24.5-4.3 29.5 0 52 22.2 52 54.1v366.2c0 37.9-29.4 77.9-64.1 90.9L604.4 941c-7.6 2.9-16.2 1.3-23.2 1.3z" p-id="3915"></path></svg>