<?xml version="1.0" standalone="no"?><!DOCTYPE svg PUBLIC "-//W3C//DTD SVG 1.1//EN" "http://www.w3.org/Graphics/SVG/1.1/DTD/svg11.dtd"><svg t="1548551932432" class="icon" style="" viewBox="0 0 1024 1024" version="1.1" xmlns="http://www.w3.org/2000/svg" p-id="2912" data-spm-anchor-id="a313x.7781069.0.i3" xmlns:xlink="http://www.w3.org/1999/xlink" width="240" height="240"><defs><style type="text/css"></style></defs><path d="M511.999488 103.434767c-225.650273 0-408.565233 182.91496-408.565233 408.565233s182.91496 408.565233 408.565233 408.565233 408.565233-182.91496 408.565233-408.565233S737.649761 103.434767 511.999488 103.434767zM675.540192 676.960029c-10.993378 11.126408-25.447579 16.624632-39.85573 16.624632-14.45113 0-28.857235-5.498224-39.85266-16.624632L483.139184 563.513234c-10.197246-10.196223-16.492626-24.382317-16.535605-39.986713L466.603579 296.367895c0-31.388894 25.224498-56.744375 56.346309-56.744375 31.166837 0 56.389288 25.355481 56.389288 56.744375l0 203.485461 96.202039 96.865141C697.528995 618.839307 697.528995 654.837172 675.540192 676.960029z" p-id="2913" data-spm-anchor-id="a313x.7781069.0.i4" class=""></path></svg>