<?xml version="1.0" standalone="no"?><!DOCTYPE svg PUBLIC "-//W3C//DTD SVG 1.1//EN" "http://www.w3.org/Graphics/SVG/1.1/DTD/svg11.dtd"><svg t="1555587065927" class="icon" style="" viewBox="0 0 1024 1024" version="1.1" xmlns="http://www.w3.org/2000/svg" p-id="785" xmlns:xlink="http://www.w3.org/1999/xlink" width="128" height="128"><defs><style type="text/css"></style></defs><path d="M298.666667 85.333333l170.666666 170.666667H341.333333v170.666667H256V256H128l170.666667-170.666667m426.666666 341.333334l-170.666666-170.666667h128V85.333333h85.333333v170.666667h128l-170.666667 170.666667M298.666667 512h426.666666a85.333333 85.333333 0 0 1 85.333334 85.333333v256a85.333333 85.333333 0 0 1-85.333334 85.333334H298.666667a85.333333 85.333333 0 0 1-85.333334-85.333334v-256a85.333333 85.333333 0 0 1 85.333334-85.333333m0 85.333333v256h426.666666v-256H298.666667z" fill="" p-id="786"></path></svg>